<svg xmlns="http://www.w3.org/2000/svg" viewBox="0 0 48 32" fill="none">
  <rect width="48" height="32" rx="4" fill="#1A1F71"/>
  <path d="M19.5 21H17L18.9 11H21.4L19.5 21Z" fill="white"/>
  <path d="M29.1 11.2C28.6 11 27.8 10.8 26.9 10.8C24.4 10.8 22.6 12.1 22.6 14C22.6 15.4 23.9 16.2 24.9 16.7C25.9 17.2 26.3 17.5 26.3 18C26.3 18.7 25.4 19 24.6 19C23.5 19 22.9 18.8 22 18.4L21.6 18.2L21.2 20.7C21.9 21 23.1 21.3 24.4 21.3C27.1 21.3 28.8 20 28.8 18C28.8 16.9 28.1 16 26.6 15.3C25.7 14.8 25.2 14.5 25.2 14C25.2 13.5 25.8 13 27 13C28 13 28.7 13.2 29.2 13.4L29.5 13.5L29.9 11.2H29.1Z" fill="white"/>
  <path d="M33.5 11H31.5C30.9 11 30.4 11.2 30.2 11.8L26.4 21H29.1L29.6 19.5H32.9L33.2 21H35.6L33.5 11ZM30.3 17.5C30.5 17 31.5 14.3 31.5 14.3C31.5 14.3 31.8 13.5 32 13L32.2 14.2C32.2 14.2 32.8 17 32.9 17.5H30.3Z" fill="white"/>
  <path d="M16.6 11L14.1 17.8L13.8 16.3C13.3 14.6 11.7 12.7 9.9 11.8L12.2 21H15L19.4 11H16.6Z" fill="white"/>
  <path d="M12.1 11H7.8L7.7 11.2C11 12 13.2 14.2 14 16.4L13.1 11.8C13 11.2 12.5 11 12.1 11Z" fill="#F9A533"/>
</svg>
